<?xml version="1.0" encoding="utf-8"?>
<!-- Generator: Adobe Illustrator 15.0.2, SVG Export Plug-In . SVG Version: 6.00 Build 0)  -->
<!DOCTYPE svg PUBLIC "-//W3C//DTD SVG 1.0//EN" "http://www.w3.org/TR/2001/REC-SVG-20010904/DTD/svg10.dtd">
<svg version="1.0" id="Layer_1" xmlns="http://www.w3.org/2000/svg" xmlns:xlink="http://www.w3.org/1999/xlink" x="0px" y="0px"
	 width="957.981px" height="155.292px" viewBox="0 0 957.981 155.292" enable-background="new 0 0 957.981 155.292"
	 xml:space="preserve">
<path fill="#808184" d="M453.524,46.44c-0.287,0.449-0.584,0.935-0.894,1.471c-0.99,1.716-2.173,3.711-3.433,5.808
	c1.092,3.413,2.447,7.569,4.065,12.413c1.712-5.412,3.063-9.85,4.054-13.187C455.961,50.65,454.663,48.426,453.524,46.44z"/>
<path fill="#6798C7" d="M453.524,46.44c-0.287,0.449-0.584,0.935-0.894,1.471c-0.99,1.716-2.173,3.711-3.433,5.808
	c1.092,3.413,2.447,7.569,4.065,12.413c1.712-5.412,3.063-9.85,4.054-13.187C455.961,50.65,454.663,48.426,453.524,46.44z"/>
<radialGradient id="SVGID_1_" cx="452.8262" cy="207.7812" r="20.8286" gradientTransform="matrix(1.9352 0 0 1.9352 -391.5557 -331.5713)" gradientUnits="userSpaceOnUse">
	<stop  offset="0" style="stop-color:#D9DBDC"/>
	<stop  offset="1" style="stop-color:#A6A8AB"/>
</radialGradient>
<path fill="url(#SVGID_1_)" d="M452.631,47.912c-0.99,1.716-2.173,3.711-3.433,5.808c-1.662-5.182-2.714-8.635-3.128-10.07
	c-1.149-4,0.515-9.456,6.611,1.312c0.269,0.474,0.552,0.971,0.843,1.479C453.237,46.89,452.94,47.375,452.631,47.912z
	 M517.625,32.892c-4.646,7.134-26.371,35.609-33.646,43.588c-8.309,9.111-14.537-3.405-14.537-3.405s-6.531-10.661-12.124-20.129
	c-0.99,3.337-2.342,7.775-4.054,13.187c2.763,8.284,6.281,18.549,10.523,30.418c10.484,29.351,24.688,9.212,27.76,3.032
	c3.073-6.185,30.962-63.989,30.962-63.989C525.758,29.401,522.275,25.757,517.625,32.892z M477.721,76.565
	c3.146,0,6.488-3.441,7.33-7.616c0.846-4.179-1.107-7.622-4.256-7.622c-3.144,0-6.436,3.443-7.277,7.622
	C472.672,73.124,474.573,76.565,477.721,76.565z"/>
<radialGradient id="SVGID_2_" cx="419.3462" cy="208.5596" r="19.0525" gradientTransform="matrix(1.9352 0 0 1.9352 -391.5557 -331.5713)" gradientUnits="userSpaceOnUse">
	<stop  offset="0" style="stop-color:#7393C0"/>
	<stop  offset="1" style="stop-color:#005694"/>
</radialGradient>
<path fill="url(#SVGID_2_)" d="M457.317,52.946c-1.356-2.295-2.654-4.52-3.793-6.505c4.777-7.465,6.51-3.241,5.653,0.017
	C458.907,47.48,458.283,49.692,457.317,52.946z M437.539,72.64c0,0-5.484,10.945-14.364,3.637
	c-7.774-6.399-31.274-29.456-36.365-35.273c-5.091-5.817-8.364-2.547-4.728,2.545c0,0,31.456,47.637,34.911,52.729
	c3.454,5.09,18.91,21.456,27.638-4.001c3.493-10.19,6.374-19.006,8.632-26.143c-1.618-4.844-2.974-9-4.065-12.413
	C444.029,62.315,437.539,72.64,437.539,72.64z M428.185,75.673c3.273,0.646,5.842-2.398,5.677-6.729
	c-0.162-4.338-2.996-8.445-6.271-9.093c-3.275-0.644-5.898,2.388-5.734,6.725C422.018,70.91,424.913,75.029,428.185,75.673z"/>
<g>
	<linearGradient id="SVGID_3_" gradientUnits="userSpaceOnUse" x1="380.5322" y1="144.2793" x2="380.5322" y2="121.4976">
		<stop  offset="0" style="stop-color:#89A3CB"/>
		<stop  offset="1" style="stop-color:#005694"/>
	</linearGradient>
	<path fill="url(#SVGID_3_)" d="M362.847,121.498h6.556l3.961,10.951c0.33,1.015,0.424,1.277,0.754,2.382l6.273-13.333h2.076
		l4.811,10.906c0.47,1.06,0.518,1.281,1.037,2.472l0.707-2.119l4.151-11.259h5.045l-9.102,22.782h-2.263l-6.369-13.156
		l-6.366,13.156h-2.311L362.847,121.498z"/>
	<linearGradient id="SVGID_4_" gradientUnits="userSpaceOnUse" x1="404.0952" y1="144.1025" x2="404.0952" y2="121.4976">
		<stop  offset="0" style="stop-color:#89A3CB"/>
		<stop  offset="1" style="stop-color:#005694"/>
	</linearGradient>
	<path fill="url(#SVGID_4_)" d="M400.959,121.498h6.272v22.605h-6.272V121.498z"/>
	<linearGradient id="SVGID_5_" gradientUnits="userSpaceOnUse" x1="423.6924" y1="144.1025" x2="423.6924" y2="120.8359">
		<stop  offset="0" style="stop-color:#89A3CB"/>
		<stop  offset="1" style="stop-color:#005694"/>
	</linearGradient>
	<path fill="url(#SVGID_5_)" d="M434.634,144.103h-6.319v-14.655c0-0.751,0-1.548-0.237-2.298c-0.377-1.281-1.556-2.646-3.819-2.646
		c-2.595,0-4.151,1.632-5.235,2.78v16.819h-6.274v-22.605h6.274v2.958c1.227-1.324,3.302-3.62,7.875-3.62
		c2.5,0,4.528,0.84,5.802,2.076c1.792,1.763,1.933,4.016,1.933,5.915V144.103z"/>
	<linearGradient id="SVGID_6_" gradientUnits="userSpaceOnUse" x1="448.5044" y1="145.0303" x2="448.5044" y2="120.5278">
		<stop  offset="0" style="stop-color:#D9DBDC"/>
		<stop  offset="1" style="stop-color:#A6A8AB"/>
	</linearGradient>
	<path fill="url(#SVGID_6_)" d="M439.921,137.833c0.282,0.575,0.565,1.193,1.226,1.81c1.32,1.236,3.584,2.074,6.225,2.074
		c0.755,0,1.556-0.042,2.357-0.308c2.642-0.792,2.642-2.87,2.642-3.001c0-0.353-0.094-0.707-0.235-1.105
		c-0.708-1.456-2.264-2.03-5.329-2.648c-1.086-0.219-2.169-0.441-3.254-0.837c-0.943-0.31-4.575-1.589-4.575-5.696
		c0-3.617,3.112-7.593,10.14-7.593c3.206,0,5.659,1.015,7.168,2.472c1.415,1.368,1.698,2.694,1.887,3.577l-1.65,0.441
		c-0.425-0.795-1.604-3.092-6.367-3.092c-3.442,0-4.811,1.546-4.811,3.002c0,2.031,2.169,2.605,4.292,3.135
		c0.895,0.176,1.791,0.355,2.688,0.573c1.321,0.311,3.16,0.795,4.527,2.121c1.133,1.105,1.886,2.78,1.886,4.678
		c0,3.929-3.348,7.596-10.278,7.596c-4.719,0-7.124-1.634-8.16-2.605c-1.604-1.546-1.886-3.18-2.028-4.239L439.921,137.833z"/>
	<linearGradient id="SVGID_7_" gradientUnits="userSpaceOnUse" x1="474.8003" y1="152.8003" x2="474.8003" y2="120.5732">
		<stop  offset="0" style="stop-color:#D9DBDC"/>
		<stop  offset="1" style="stop-color:#A6A8AB"/>
	</linearGradient>
	<path fill="url(#SVGID_7_)" d="M469.114,123.706c0.991-0.928,3.445-3.133,7.735-3.133c6.134,0,9.907,4.677,9.907,12.229
		c0,8.342-5.05,12.229-10.282,12.229c-4.244,0-6.226-2.163-7.36-3.399V152.8h-6.271v-31.303h6.271V123.706z M469.114,138.584
		c0.755,1.059,2.029,2.825,5.144,2.825c4.526,0,6.037-4.37,6.037-8.433c0-5.121-2.028-8.917-6.226-8.917
		c-2.784,0-4.104,1.546-4.955,2.517V138.584z"/>
	<linearGradient id="SVGID_8_" gradientUnits="userSpaceOnUse" x1="494.4692" y1="144.1025" x2="494.4692" y2="121.4976">
		<stop  offset="0" style="stop-color:#D9DBDC"/>
		<stop  offset="1" style="stop-color:#A6A8AB"/>
	</linearGradient>
	<path fill="url(#SVGID_8_)" d="M491.333,121.498h6.272v22.605h-6.272V121.498z"/>
	<linearGradient id="SVGID_9_" gradientUnits="userSpaceOnUse" x1="510.8125" y1="144.1025" x2="510.8125" y2="120.8359">
		<stop  offset="0" style="stop-color:#D9DBDC"/>
		<stop  offset="1" style="stop-color:#A6A8AB"/>
	</linearGradient>
	<path fill="url(#SVGID_9_)" d="M509.494,124.324c0.941-1.148,2.874-3.488,7.168-3.488c0.613,0,1.226,0.045,1.791,0.132v5.121
		c-1.178-0.528-2.407-1.058-4.148-1.058c-2.312,0-3.727,0.885-4.811,1.547v17.525h-6.322v-22.605h6.322V124.324z"/>
	<linearGradient id="SVGID_10_" gradientUnits="userSpaceOnUse" x1="532.4629" y1="145.0303" x2="532.4629" y2="120.4829">
		<stop  offset="0" style="stop-color:#D9DBDC"/>
		<stop  offset="1" style="stop-color:#A6A8AB"/>
	</linearGradient>
	<path fill="url(#SVGID_10_)" d="M544.348,137.922c-1.037,2.472-2.97,7.108-11.271,7.108c-8.678,0-13.254-5.609-13.254-12.538
		c0-6.624,4.531-12.009,13.066-12.009c2.076,0,5.846,0.31,8.772,3.046c3.347,3.179,3.396,7.372,3.443,9.846h-18.582
		c0.234,1.677,1.035,7.903,8.489,7.903c4.386,0,6.129-2.078,7.78-4.062L544.348,137.922z M538.265,129.932
		c-0.283-2.033-0.801-5.74-5.519-5.74c-4.525,0-5.471,3.488-6.082,5.74H538.265z"/>
</g>
</svg>
