<svg xmlns="http://www.w3.org/2000/svg" xmlns:xlink="http://www.w3.org/1999/xlink" xmlns:sketch="http://www.bohemiancoding.com/sketch/ns" width="218px" height="88px" viewBox="0 0 218 88" version="1.1"><!-- Generator: Sketch 3.0.1 (7597) - http://www.bohemiancoding.com/sketch --><title>GG Logo Tag 4C</title><description>Created with Sketch.</description><defs><path d="M0.06 -0.3 L217.951 -0.3 L217.951 87 L0.06 87"/></defs><g stroke="none" stroke-width="1" fill="none" fill-rule="evenodd" sketch:type="MSPage"><g sketch:type="MSLayerGroup" transform="translate(0.000000, 1.000000)"><path d="M63.464 32.3 C64.953 32.3 65.4 31 65.4 29.6 C65.384 28.2 64.8 27.1 63.5 27.1 C61.976 27.1 61.5 28.5 61.5 29.9 C61.521 31.2 62.1 32.3 63.5 32.3 L63.464 32.3 Z M61.017 39.6 C60.68 39.9 60.5 40.1 60.5 40.5 C60.464 41.9 63 42 63.8 42 C64.425 42 67.5 41.9 67.5 40.7 C67.544 40 67.1 40 65 39.9 L61.017 39.6 L61.017 39.6 Z M62.144 34.8 C61.736 34.8 61.1 35 61.1 35.7 C61.136 37.6 70.4 34.3 70.4 40 C70.449 42.2 69.1 44.5 63.8 44.5 C59.144 44.5 57.6 42.7 57.6 40.8 C57.56 39.7 58.2 39.1 59 38.6 C58.449 38.1 58 37.5 58 36.7 C57.968 35.3 58.7 34.5 59.7 33.8 C58.736 32.7 58 31.4 58 29.7 C58.041 26.5 60.6 24.6 63.5 24.6 C64.64 24.6 65.8 25 66.8 25.6 C67.498 24.9 68.1 24.4 69.2 24.4 C69.537 24.4 69.9 24.4 70.2 24.5 L70.234 27.2 C69.873 27.1 69.5 26.9 69.1 26.9 C68.721 26.9 68.5 27.1 68.1 27.2 C68.529 28 68.8 28.9 68.9 29.7 C68.865 33 66.4 34.9 63.5 34.9 L62.144 34.8 L62.144 34.8 Z" fill="#003C68" sketch:type="MSShapeGroup"/><path d="M77.048 27.2 C78.416 25.6 79.5 24.6 81.2 24.6 L81.826 24.6 L81.826 28.1 C81.489 28.1 81.2 28 80.8 28 C79.88 28 77 28.8 77 32.4 L77.048 38.3 L73.496 38.3 L73.496 24.9 L77.048 24.9 L77.048 27.2" fill="#003C68" sketch:type="MSShapeGroup"/><path d="M92.169 30.2 C92.169 28.7 91.6 27.2 89.9 27.2 C88.257 27.2 87.6 28.8 87.6 30.2 L92.169 30.2 L92.169 30.2 Z M87.441 32.4 C87.321 34.1 88.3 36 90.1 36 C91.401 36 92.1 35 92.4 33.8 L95.65 34.4 C94.881 37.1 92.3 38.6 89.8 38.6 C85.857 38.6 83.9 35.1 83.9 31.6 C83.865 28 85.8 24.6 89.8 24.6 C93.154 24.6 95.7 26.2 95.7 32.4 L87.441 32.4 L87.441 32.4 Z" fill="#003C68" sketch:type="MSShapeGroup"/><path d="M106.568 32.2 C105.105 32.4 102.2 32.6 102.2 34.5 C102.201 35.3 102.6 36 103.4 36 C104.888 36 105.9 35.1 106.6 34.2 L106.568 32.2 L106.568 32.2 Z M106.76 37.1 C105.441 38 104.6 38.6 102.9 38.6 C100.616 38.6 98.7 37 98.7 34.6 C98.72 30.8 103.7 30.1 106.6 29.7 C106.808 27.9 106.2 27.2 104.9 27.2 C103.736 27.2 102.9 27.7 102.7 28.9 L99.32 28.4 C100.112 25.5 102 24.6 104.8 24.6 C108.464 24.6 110.1 26.3 110.1 28.8 L110.121 35.5 C110.121 36.5 110.2 37.4 110.6 38.3 L107.144 38.3 L106.76 37.1 L106.76 37.1 Z" fill="#003C68" sketch:type="MSShapeGroup"/><path d="M117.945 24.9 L120.705 24.9 L120.705 27.8 L117.945 27.8 L117.945 34.7 C117.945 35.3 118.1 36 119.3 36 C119.888 36 120.3 35.7 120.7 35.5 L120.705 38.2 C119.96 38.4 119.2 38.6 118.4 38.6 C116.216 38.6 114.4 37.4 114.4 34.4 L114.392 27.8 L112.736 27.8 L112.736 24.9 L114.392 24.9 L114.392 21.5 L117.945 21.5 L117.945 24.9" fill="#003C68" sketch:type="MSShapeGroup"/><path d="M131.144 30.2 C131.144 28.7 130.5 27.2 128.8 27.2 C127.232 27.2 126.6 28.8 126.5 30.2 L131.144 30.2 L131.144 30.2 Z M126.416 32.4 C126.296 34.1 127.3 36 129.1 36 C130.376 36 131.1 35 131.3 33.8 L134.625 34.4 C133.857 37.1 131.3 38.6 128.7 38.6 C124.832 38.6 122.8 35.1 122.8 31.6 C122.839 28 124.8 24.6 128.7 24.6 C132.128 24.6 134.7 26.2 134.6 32.4 L126.416 32.4 L126.416 32.4 Z" fill="#003C68" sketch:type="MSShapeGroup"/><path d="M141.607 27.2 C142.975 25.6 144.1 24.6 145.7 24.6 L146.384 24.6 L146.384 28.1 C146.048 28.1 145.7 28 145.4 28 C144.439 28 141.6 28.8 141.6 32.4 L141.607 38.3 L138.054 38.3 L138.054 24.9 L141.607 24.9 L141.607 27.2" fill="#003C68" sketch:type="MSShapeGroup"/><path d="M158.648 29.8 C158.648 28.3 157.5 26.9 155.4 26.9 C153.199 26.9 151.9 28.1 151.9 29.9 C151.927 31.7 153.3 32.9 155.3 32.9 C157.375 32.9 158.6 31.5 158.6 29.8 L158.648 29.8 Z M151.111 39.6 C151.111 40.7 152.6 41.8 155.6 41.8 C158.287 41.8 159.7 41.1 159.7 39.8 C159.703 38.1 157.4 37.9 152.6 37.6 C151.71 38 151.1 38.6 151.1 39.6 L151.111 39.6 Z M155.359 25.4 C156.966 25.4 157.9 25.9 158.8 26.5 C160.039 25.9 160.9 25.8 162 25.7 L162.031 27.2 L161.527 27.2 C160.927 27.2 160.4 27.2 159.7 27.5 C160.064 28.1 160.3 28.8 160.3 29.8 C160.328 32.5 158.3 34.4 155.2 34.4 C154.375 34.4 153.4 34.3 152.7 34 C152.119 34.3 151.7 34.6 151.7 35.1 C151.734 35.9 153 36 155.6 36.2 C160.255 36.5 161.4 38 161.4 39.8 C161.384 41.9 159.5 43.4 156 43.4 C151.902 43.4 149.6 41.8 149.6 39.7 C149.623 38.5 150.3 37.8 151.2 37.1 C150.535 36.6 150.1 36.3 150.1 35.5 C150.054 34.4 150.8 33.9 151.8 33.3 C150.798 32.4 150.2 31.3 150.2 29.9 C150.248 27.4 152.3 25.4 155.4 25.4 L155.359 25.4 Z" fill="#003C68" sketch:type="MSShapeGroup"/><path d="M165.199 25.7 L166.904 25.7 L166.904 38.3 L165.199 38.3 L165.199 25.7 Z M165.199 20.7 L166.904 20.7 L166.904 22.8 L165.199 22.8 L165.199 20.7 Z" fill="#003C68" sketch:type="MSShapeGroup"/><path d="M176.527 38.3 L174.966 38.3 L170.501 25.7 L172.398 25.7 L175.783 35.9 L179.167 25.7 L181.015 25.7 L176.527 38.3" fill="#003C68" sketch:type="MSShapeGroup"/><path d="M184.615 25.7 L186.318 25.7 L186.318 38.3 L184.615 38.3 L184.615 25.7 Z M184.615 20.7 L186.318 20.7 L186.318 22.8 L184.615 22.8 L184.615 20.7 Z" fill="#003C68" sketch:type="MSShapeGroup"/><path d="M193.302 38.3 L191.597 38.3 L191.597 25.7 L193.302 25.7 L193.302 27.2 C195.246 26.1 196.9 25.4 198.1 25.4 C200.214 25.4 201.7 27 201.7 29.5 L201.654 38.3 L199.951 38.3 L199.951 29.9 C199.951 28 199.3 27 197.8 27 C196.302 27 194.8 27.7 193.3 28.6 L193.302 38.3" fill="#003C68" sketch:type="MSShapeGroup"/><path d="M214.566 29.8 C214.566 28.3 213.5 26.9 211.3 26.9 C209.119 26.9 207.8 28.1 207.8 29.9 C207.845 31.7 209.2 32.9 211.2 32.9 C213.294 32.9 214.6 31.5 214.6 29.8 L214.566 29.8 Z M207.029 39.6 C207.029 40.7 208.5 41.8 211.5 41.8 C214.207 41.8 215.6 41.1 215.6 39.8 C215.623 38.1 213.3 37.9 208.5 37.6 C207.63 38 207 38.6 207 39.6 L207.029 39.6 Z M211.279 25.4 C212.886 25.4 213.8 25.9 214.8 26.5 C215.958 25.9 216.8 25.8 218 25.7 L217.951 27.2 L217.447 27.2 C216.847 27.2 216.3 27.2 215.6 27.5 C215.982 28.1 216.2 28.8 216.2 29.8 C216.246 32.5 214.3 34.4 211.1 34.4 C210.294 34.4 209.4 34.3 208.7 34 C208.039 34.3 207.7 34.6 207.7 35.1 C207.654 35.9 209 36 211.5 36.2 C216.175 36.5 217.3 38 217.3 39.8 C217.302 41.9 215.4 43.4 211.9 43.4 C207.822 43.4 205.5 41.8 205.5 39.7 C205.542 38.5 206.2 37.8 207.1 37.1 C206.455 36.6 206 36.3 206 35.5 C205.974 34.4 206.7 33.9 207.8 33.3 C206.718 32.4 206.2 31.3 206.2 29.9 C206.166 27.4 208.2 25.4 211.3 25.4 L211.279 25.4 Z" fill="#003C68" sketch:type="MSShapeGroup"/><g><mask sketch:name="Clip 39" fill="white"><use xlink:href="#path-1"/></mask><g/><path d="M43.197 3.3 C43.259 1.7 45.9 0.1 49.1 -0.2 C52.351 -0.6 54.9 0.3 54.8 1.9 C54.785 3.4 52.1 5 48.9 5.4 C45.693 5.8 43.1 4.8 43.2 3.3" fill="#007F56" sketch:type="MSShapeGroup" mask="url(#mask-2)"/><path d="M0.002 50 C0.12 46.7 4.2 42.7 10 39.7 C13.922 44.9 20.2 48.3 27.2 48.3 C28.232 48.3 29.2 48.2 30.2 48 C26.957 50.3 22.7 52.2 18.1 53.5 C7.956 56.4 -0.2 54.8 0 50" fill="#007F56" sketch:type="MSShapeGroup" mask="url(#mask-2)"/></g><path d="M5.681 26.7 C5.681 14.8 15.3 5.2 27.2 5.2 C39.092 5.2 48.7 14.8 48.7 26.7 C48.728 37.6 40.7 46.6 30.2 48 C34.222 45.4 36.8 42.3 36.9 39.7 C37.058 34.9 28.9 33.3 18.8 36.2 C15.597 37.1 12.6 38.3 10 39.7 C7.287 36.1 5.7 31.6 5.7 26.7 M16.817 22.5 C16.703 25.7 22.1 27.1 29 25.6 C35.773 24.1 41.4 20.3 41.5 17 C41.622 13.8 36.2 12.4 29.4 13.9 C22.552 15.4 16.9 19.2 16.8 22.5" fill="#007F56" sketch:type="MSShapeGroup"/><path d="M3.006 78.7 C3.369 72.2 14.3 63 27.5 58.3 C40.694 53.6 51.1 55.1 50.7 61.7 C50.357 68.2 39.4 77.4 26.2 82.1 C13.03 86.8 2.6 85.3 3 78.7" fill="#007F56" sketch:type="MSShapeGroup"/><path d="M43.459 82.5 C44.118 82.5 44.4 82.7 44.4 83.1 C44.427 83.6 44.1 83.7 43.5 83.7 L42.861 83.7 L42.861 82.5 L43.459 82.5 L43.459 82.5 Z M43.57 82.1 L42.27 82.1 L42.27 85.6 L42.861 85.6 L42.861 84.1 L43.605 84.1 L44.341 85.6 L45 85.6 L44.212 84 C44.726 83.9 45 83.6 45 83.1 C45.035 82.4 44.5 82.1 43.6 82.1 L43.57 82.1 Z M46.199 83.9 C46.199 84.7 45.9 85.3 45.4 85.8 C44.878 86.3 44.2 86.6 43.5 86.6 C42.775 86.6 42.1 86.3 41.6 85.8 C41.072 85.3 40.8 84.6 40.8 83.9 C40.791 83.2 41.1 82.5 41.6 82 C42.099 81.5 42.8 81.2 43.5 81.2 C44.229 81.2 44.9 81.5 45.4 82 C45.923 82.5 46.2 83.2 46.2 83.9 L46.199 83.9 Z M43.486 80.9 C42.656 80.9 41.9 81.2 41.3 81.7 C40.748 82.3 40.4 83.1 40.4 83.9 C40.422 84.7 40.7 85.5 41.3 86.1 C41.912 86.7 42.7 87 43.5 87 C44.289 87 45.1 86.7 45.7 86.1 C46.249 85.5 46.6 84.8 46.6 83.9 C46.556 83.1 46.2 82.3 45.7 81.8 C45.083 81.2 44.3 80.9 43.5 80.9 L43.486 80.9 Z" fill="#007F56" sketch:type="MSShapeGroup"/></g></g></svg>